<?xml version="1.0" encoding="utf-8"?>
<!-- Generator: Adobe Illustrator 25.4.1, SVG Export Plug-In . SVG Version: 6.00 Build 0)  -->
<svg version="1.1" id="Capa_1" xmlns="http://www.w3.org/2000/svg" xmlns:xlink="http://www.w3.org/1999/xlink" x="0px" y="0px" width="95" height="95"
	 viewBox="0 0 95 95" style="enable-background:new 0 0 95 95;" xml:space="preserve">
<g>
	<path d="M36.4,95c0-11.2,0-22.4,0-33.7c2,0,3.9,0,5.8,0c1.5-5.7,5-9.4,10.9-10.9c0,1.5,0,2.9,0,4.3c0,1.2,0,2.4,0,3.6
		c0,1.8,1.2,3,3,3c6.3,0,12.5,0,18.8,0c6.7,0,11.5,4.8,11.5,11.5c0,3.5,0,7.1,0,10.6c0,5.9-3.6,10.2-9.3,11.4
		c-0.1,0-0.2,0.1-0.3,0.2C63.3,95,49.8,95,36.4,95z"/>
	<path d="M8.6,95c0-13.1,0-26.1,0-39.2c7.4,0,14.8,0,22.2,0c0,13.1,0,26.1,0,39.2C23.4,95,16,95,8.6,95z M19.7,72.3
		c1.9,0,3.7,0,5.5,0c0-1.8,0-3.6,0-5.5c-1.9,0-3.6,0-5.5,0C19.7,68.7,19.7,70.5,19.7,72.3z"/>
	<path d="M86.4,22.4c0,12.3-10.1,22.2-22.4,22.2c-12.3-0.1-22.2-10.1-22.1-22.4C42,10,52.1,0.1,64.3,0.1
		C76.5,0.2,86.4,10.2,86.4,22.4z M73.5,17c-1.4-1.4-2.7-2.7-4.1-4.1c-1.7,1.7-3.5,3.6-5.4,5.6c-1.8-1.9-3.6-3.7-5.2-5.4
		c-1.3,1.3-2.6,2.6-4,4c1.7,1.7,3.6,3.5,5.5,5.4c-1.8,1.8-3.7,3.6-5.3,5.3c1.3,1.3,2.6,2.6,4,4c1.7-1.7,3.5-3.6,5.4-5.6
		c1.8,1.9,3.6,3.7,5.2,5.4c1.3-1.3,2.6-2.6,4-4c-1.7-1.7-3.6-3.5-5.4-5.3C70,20.5,71.8,18.7,73.5,17z"/>
	<path d="M58.7,49.6c3.7,0.7,7.3,0.7,11,0c0,2,0,4,0,6c-3.6,0-7.3,0-11,0C58.7,53.7,58.7,51.7,58.7,49.6z"/>
</g>
</svg>
